<?xml version="1.0" standalone="no"?>
<!DOCTYPE svg PUBLIC "-//W3C//DTD SVG 20010904//EN"
 "http://www.w3.org/TR/2001/REC-SVG-20010904/DTD/svg10.dtd">
<svg version="1.0" xmlns="http://www.w3.org/2000/svg"
 width="842.000000pt" height="842.000000pt" viewBox="0 0 842.000000 842.000000"
 preserveAspectRatio="xMidYMid meet">
<metadata>
Created by potrace 1.14, written by Peter Selinger 2001-2017
</metadata>
<g transform="translate(0.000000,842.000000) scale(0.100000,-0.100000)"
fill="#000000" stroke="none">
<path d="M5190 7992 c-6 -2 -7 -9 -3 -15 5 -9 3 -9 -8 0 -9 8 -20 9 -29 3 -21
-14 -32 -12 -25 3 4 6 0 4 -9 -7 -8 -10 -20 -15 -27 -10 -8 4 -10 3 -5 -4 4
-7 2 -12 -3 -12 -6 0 -11 5 -11 10 0 7 -6 7 -17 2 -10 -5 -30 -9 -45 -8 -14 1
-26 -3 -25 -9 1 -5 -3 -9 -10 -8 -7 2 -10 -4 -7 -12 4 -8 -1 -17 -9 -21 -9 -3
-13 -12 -10 -21 4 -11 2 -14 -5 -9 -7 4 -12 2 -12 -4 0 -6 -4 -9 -9 -6 -5 4
-12 0 -14 -6 -4 -10 -6 -10 -6 0 -1 6 -10 12 -22 12 -11 0 -27 6 -34 13 -34
29 -42 34 -63 32 -12 -1 -22 2 -22 6 0 5 -8 5 -17 2 -16 -6 -16 -5 -4 10 17
21 8 22 -13 1 -13 -12 -16 -13 -16 -1 0 7 -7 14 -15 14 -8 0 -15 -5 -15 -11 0
-7 -3 -6 -8 1 -10 16 -79 25 -87 12 -4 -5 -11 -6 -17 -3 -6 4 -17 -1 -24 -10
-8 -12 -14 -14 -19 -6 -5 8 -11 8 -21 -1 -8 -6 -14 -8 -14 -5 0 4 -9 2 -20 -4
-12 -6 -20 -7 -20 -1 0 10 -19 9 -37 -2 -7 -5 -13 -4 -13 2 0 6 -7 8 -15 5 -8
-4 -12 -11 -9 -16 4 -6 -3 -5 -15 1 -18 10 -20 9 -14 -6 5 -13 3 -15 -11 -10
-11 5 -15 3 -10 -5 5 -7 0 -9 -14 -6 -12 4 -20 2 -17 -2 7 -11 -24 -42 -36
-35 -5 4 -6 -2 -2 -11 5 -13 3 -15 -7 -9 -10 6 -12 4 -7 -8 3 -9 1 -19 -5 -23
-7 -5 -8 -2 -3 7 8 12 6 12 -8 0 -10 -8 -15 -16 -13 -18 6 -6 -37 -49 -46 -46
-4 2 -5 -4 -2 -12 4 -10 0 -15 -10 -15 -9 0 -19 -6 -22 -14 -8 -20 -44 -16
-56 7 -5 10 -16 16 -24 13 -8 -3 -14 -1 -14 3 0 11 -26 8 -37 -4 -4 -4 -3 -5
4 -1 6 3 15 1 19 -6 4 -7 4 -10 -1 -6 -4 4 -17 3 -28 -3 -15 -9 -18 -8 -12 3
4 7 -3 2 -15 -12 -12 -14 -19 -20 -16 -13 4 6 3 14 -2 17 -5 3 -9 -1 -10 -9
-1 -8 -3 -22 -4 -30 -1 -12 -4 -12 -17 -2 -12 9 -13 9 -7 0 4 -8 2 -13 -6 -13
-9 0 -9 -3 2 -10 8 -5 10 -10 4 -10 -7 0 -15 -7 -18 -16 -3 -8 -2 -13 2 -10 4
2 8 -7 8 -20 1 -15 -2 -21 -10 -17 -6 4 -5 -1 3 -10 7 -9 20 -17 28 -17 9 0
13 -6 10 -14 -4 -10 0 -13 14 -11 18 4 19 2 7 -12 -9 -12 -9 -15 0 -9 7 4 12
2 12 -4 0 -6 5 -8 12 -4 7 5 9 2 5 -8 -4 -11 -1 -15 11 -13 9 2 17 4 17 5 0 1
10 3 22 4 15 2 19 -2 15 -12 -3 -10 -1 -13 6 -8 7 4 12 2 12 -4 0 -6 5 -8 13
-4 8 5 8 2 -2 -9 -12 -15 -11 -17 3 -17 10 0 15 -4 12 -8 -3 -5 6 -16 20 -26
13 -11 24 -25 24 -32 0 -8 6 -14 14 -14 8 0 17 -7 20 -16 3 -8 2 -12 -4 -9 -6
3 -7 -1 -4 -9 3 -9 10 -14 14 -11 4 3 8 -5 9 -18 2 -50 6 -67 16 -67 5 0 3 -4
-5 -10 -12 -8 -12 -10 3 -15 13 -5 14 -11 7 -25 -7 -13 -6 -21 2 -26 7 -5 8
-3 3 6 -5 9 -4 11 4 6 9 -6 9 -11 0 -22 -7 -9 -8 -14 -1 -14 6 0 9 -11 7 -25
-2 -22 0 -23 13 -13 13 11 15 10 10 -9 -4 -17 -2 -23 9 -23 13 0 13 -2 2 -17
-8 -9 -9 -14 -3 -10 7 4 14 -5 18 -23 3 -18 12 -30 21 -30 8 0 15 -7 15 -16 0
-8 4 -13 9 -9 5 3 12 -4 16 -15 3 -11 12 -20 20 -20 7 0 16 -7 19 -16 3 -8 11
-12 17 -8 8 4 9 3 5 -4 -4 -7 -2 -12 4 -12 6 0 8 -5 5 -10 -4 -6 -3 -10 2 -9
22 4 31 -3 28 -21 -2 -12 2 -20 10 -20 8 0 11 -7 8 -20 -3 -11 -1 -20 5 -20 6
0 10 -9 9 -20 -1 -10 -3 -17 -5 -15 -3 2 -11 -3 -20 -11 -8 -9 -18 -12 -21 -7
-3 4 -22 8 -41 8 -19 0 -49 5 -66 11 -21 8 -36 8 -49 2 -10 -6 -15 -6 -12 -1
7 11 -149 10 -174 -1 -9 -4 -47 -9 -85 -11 -38 -2 -71 -4 -74 -5 -3 -1 -9 -2
-13 -1 -4 1 -10 -5 -13 -13 -5 -12 -10 -13 -24 -4 -14 9 -22 9 -34 -1 -11 -10
-16 -10 -16 -2 0 9 -5 9 -20 1 -14 -8 -20 -8 -20 0 0 7 -6 8 -18 1 -13 -7 -23
-6 -32 2 -10 9 -11 9 -5 -2 5 -9 3 -12 -6 -9 -8 3 -20 -2 -26 -11 -11 -14 -14
-14 -23 -1 -7 12 -10 12 -10 1 0 -7 -6 -11 -15 -7 -8 3 -15 1 -15 -4 0 -5 -7
-7 -15 -4 -8 4 -12 11 -8 17 4 6 1 7 -6 3 -7 -5 -10 -15 -6 -25 5 -12 3 -13
-5 -5 -9 9 -19 8 -42 -4 -35 -17 -74 -53 -70 -64 1 -5 -2 -8 -7 -8 -5 0 -7 -9
-4 -20 3 -13 0 -20 -8 -20 -11 0 -11 -2 1 -10 8 -5 10 -10 4 -10 -7 0 -10 -13
-9 -30 1 -16 -1 -30 -6 -30 -5 0 -8 -3 -8 -7 1 -5 0 -10 -1 -13 -7 -19 -7 -39
1 -34 5 3 9 -4 9 -15 0 -11 4 -23 10 -26 6 -4 7 1 4 12 -5 14 -4 15 4 4 6 -8
9 -23 7 -33 -2 -10 1 -18 7 -18 7 0 6 -5 -2 -15 -6 -8 -9 -19 -5 -25 3 -5 2
-10 -4 -10 -6 0 -8 -7 -4 -16 3 -9 0 -20 -8 -25 -11 -7 -11 -9 -1 -9 7 0 10
-4 7 -10 -3 -5 -8 -29 -11 -52 -3 -23 -8 -47 -12 -52 -3 -6 -8 -20 -9 -31 -2
-11 -8 -24 -13 -29 -4 -4 -6 -15 -3 -22 3 -8 1 -14 -5 -14 -5 0 -9 -10 -8 -22
0 -13 -4 -22 -10 -21 -8 1 -10 -6 -6 -19 3 -14 1 -19 -6 -14 -8 5 -12 0 -12
-13 0 -12 -5 -21 -11 -21 -6 0 -9 -6 -7 -12 3 -7 -1 -19 -9 -26 -7 -8 -11 -18
-8 -23 4 -5 1 -9 -5 -9 -6 0 -8 -4 -5 -10 3 -5 -1 -10 -10 -10 -13 0 -14 -4
-5 -20 8 -16 8 -20 -2 -18 -9 2 -13 -8 -13 -29 0 -23 -5 -33 -15 -33 -12 0
-12 -2 -1 -9 9 -6 10 -11 2 -15 -15 -10 -14 -29 2 -21 6 4 1 -3 -13 -15 -14
-12 -19 -18 -11 -14 11 6 13 3 6 -12 -4 -10 -8 -38 -9 -61 0 -24 -5 -43 -10
-43 -5 0 -3 -7 4 -15 11 -13 10 -14 -6 -8 -17 6 -17 5 -5 -10 9 -11 10 -17 2
-17 -6 0 -11 -6 -11 -14 0 -8 -16 -30 -36 -50 -20 -20 -30 -35 -23 -33 8 2 4
-1 -8 -7 -21 -9 -47 -59 -37 -69 2 -2 -4 -10 -13 -18 -17 -13 -17 -13 -3 6 14
19 14 19 -3 6 -10 -8 -16 -20 -13 -28 3 -8 -1 -16 -10 -20 -9 -3 -13 -12 -9
-21 5 -13 3 -13 -12 -1 -9 8 -14 9 -11 3 4 -5 -9 -23 -27 -39 -19 -15 -32 -32
-29 -36 3 -5 0 -9 -6 -9 -6 0 -10 -8 -8 -17 2 -10 -2 -17 -8 -16 -7 1 -10 -6
-7 -17 3 -12 0 -20 -6 -20 -7 0 -10 -4 -7 -9 3 -5 -1 -12 -10 -15 -9 -3 -14
-12 -11 -20 3 -7 1 -18 -5 -24 -6 -6 -12 -36 -14 -67 -2 -31 -6 -60 -9 -66 -4
-5 0 -9 7 -9 10 0 10 -2 -1 -9 -9 -6 -10 -10 -2 -16 9 -5 9 -10 0 -21 -6 -7
-16 -11 -23 -7 -6 4 -4 -2 4 -12 9 -11 10 -16 2 -11 -7 4 -15 1 -18 -8 -3 -9
-10 -13 -15 -10 -5 3 -9 -2 -9 -10 0 -10 -7 -13 -21 -11 -18 4 -19 2 -8 -13 7
-9 9 -14 5 -10 -5 4 -16 2 -24 -5 -13 -10 -14 -9 -7 2 6 10 4 12 -4 7 -7 -5
-10 -14 -7 -22 3 -8 0 -11 -10 -7 -9 3 -14 -1 -14 -12 0 -9 -4 -13 -10 -10 -5
3 -10 1 -10 -4 0 -6 -7 -11 -15 -11 -8 0 -15 -5 -15 -12 0 -6 -3 -9 -6 -5 -4
3 -15 -4 -25 -16 -17 -19 -18 -19 -12 -3 6 19 6 19 -13 0 -11 -10 -39 -30 -62
-44 -23 -14 -40 -30 -37 -37 2 -6 -3 -14 -11 -17 -10 -4 -13 -1 -9 7 4 6 0 4
-8 -5 -8 -10 -17 -15 -20 -11 -4 3 -7 1 -7 -6 0 -7 -4 -9 -10 -6 -6 4 -7 -1
-3 -11 4 -12 2 -15 -8 -12 -8 3 -29 -8 -47 -24 -18 -16 -37 -26 -42 -23 -4 3
-10 -1 -13 -7 -3 -10 -7 -10 -21 1 -14 12 -16 12 -11 0 4 -11 -3 -14 -32 -13
-21 0 -41 -4 -45 -10 -6 -8 -11 -7 -17 2 -7 11 -11 11 -22 -1 -8 -7 -20 -12
-28 -9 -10 3 -11 0 -5 -9 6 -11 3 -10 -11 1 -10 8 -16 10 -12 3 6 -10 -19 -26
-45 -28 -4 0 -16 -10 -28 -22 -11 -13 -25 -23 -31 -23 -6 0 -7 -4 -4 -10 3 -5
-4 -10 -16 -10 -19 0 -20 -2 -8 -17 8 -9 9 -14 2 -10 -15 9 -45 -2 -37 -15 3
-5 -3 -12 -15 -15 -12 -3 -21 -10 -21 -15 0 -5 -4 -6 -10 -3 -6 3 -7 -1 -4
-10 4 -10 2 -15 -7 -13 -8 2 -13 -3 -12 -9 2 -7 -5 -13 -15 -13 -16 -1 -16 -1
1 -14 14 -11 15 -15 5 -19 -11 -4 -11 -6 0 -6 8 -1 10 -6 6 -13 -5 -9 -2 -9 9
1 12 9 17 10 17 2 0 -7 5 -9 12 -5 6 4 17 -1 25 -11 9 -14 13 -15 13 -4 1 9 5
7 13 -6 7 -11 17 -21 22 -22 26 -5 81 -29 87 -38 4 -5 8 -6 8 -1 0 5 10 1 22
-10 12 -10 18 -13 14 -6 -4 6 -2 12 3 12 6 0 11 -4 11 -9 0 -5 23 -8 50 -8 28
1 50 5 50 10 0 4 5 5 10 2 6 -3 10 -1 10 6 0 8 4 8 16 -1 8 -8 14 -9 13 -4 -1
5 -1 18 0 29 1 17 3 18 11 5 8 -13 10 -12 10 3 0 10 4 16 9 13 5 -3 17 5 27
19 10 13 22 21 27 18 5 -3 7 0 5 8 -3 9 10 22 35 34 22 11 40 25 40 30 0 6 13
16 28 23 17 9 26 19 22 28 -5 12 7 19 29 15 5 0 7 2 7 7 -4 23 3 34 17 28 8
-3 12 -2 9 4 -3 6 1 10 10 10 9 0 13 5 10 10 -6 10 -5 11 32 15 13 1 29 8 38
15 8 7 15 10 15 6 0 -3 9 3 20 14 12 12 26 17 36 13 13 -5 15 -3 9 7 -6 10 -3
12 13 8 12 -4 20 -3 18 0 -2 4 2 13 10 19 8 9 15 9 19 2 4 -6 14 -2 24 10 10
11 20 18 23 16 3 -3 17 1 31 8 15 8 24 17 20 21 -4 4 0 4 9 1 9 -4 18 0 22 10
3 10 13 15 20 12 8 -3 17 1 20 9 3 9 10 13 16 9 5 -3 18 2 28 12 10 10 25 19
33 21 7 2 17 9 22 15 5 9 11 7 21 -5 7 -10 16 -18 20 -18 4 0 24 -18 45 -40
21 -22 43 -40 48 -40 6 0 16 -6 22 -14 19 -23 111 2 111 31 0 7 4 13 10 13 5
0 10 3 9 8 -3 17 14 52 25 52 6 0 4 5 -4 10 -10 6 -11 10 -2 10 6 0 12 8 12
18 0 11 9 27 20 37 11 10 20 24 20 30 0 17 25 26 38 13 6 -6 12 -6 17 3 5 8 4
10 -3 5 -7 -4 -12 -2 -12 4 0 6 14 9 35 7 19 -2 32 -1 30 3 -2 4 9 7 25 6 17
-1 30 -5 30 -11 0 -7 3 -7 8 0 10 14 32 17 32 4 0 -5 4 -8 9 -4 5 3 17 -2 25
-11 9 -8 16 -11 16 -4 0 13 32 9 42 -5 5 -6 8 -6 8 2 0 13 18 12 39 -1 9 -6
12 -5 8 1 -4 7 7 10 31 9 26 -1 38 -6 40 -19 2 -9 8 -15 13 -12 5 4 9 -5 9
-19 0 -14 5 -26 10 -26 6 0 10 -7 10 -15 0 -8 5 -15 10 -15 6 0 10 -12 10 -26
0 -15 4 -23 10 -19 7 4 9 -3 6 -19 -3 -15 0 -25 6 -23 6 1 13 -11 15 -28 2
-16 4 -36 5 -42 1 -7 8 -13 17 -13 14 0 14 -2 1 -10 -11 -7 -11 -10 -2 -10 7
0 10 -5 7 -10 -4 -6 -1 -17 5 -25 10 -12 10 -15 1 -15 -8 0 -7 -6 3 -16 9 -8
14 -19 11 -24 -3 -5 0 -10 5 -12 6 -2 12 -13 13 -26 0 -12 4 -22 7 -22 5 0 9
-18 12 -58 1 -6 4 -10 6 -7 8 7 33 -46 26 -56 -3 -5 2 -9 10 -9 9 0 15 -6 13
-12 -1 -7 3 -12 10 -11 8 2 11 -9 9 -33 -1 -19 2 -38 7 -41 6 -4 7 -1 2 7 -5
9 -4 11 4 6 9 -6 9 -11 0 -22 -9 -11 -8 -14 2 -14 9 0 10 -3 4 -8 -14 -10 -15
-42 -1 -42 6 0 4 -5 -4 -10 -13 -9 -13 -10 0 -10 13 0 13 -1 0 -10 -12 -7 -12
-10 -1 -10 7 0 11 -6 7 -15 -3 -8 -1 -15 4 -15 6 0 10 -5 10 -11 0 -5 -4 -7
-10 -4 -6 3 -7 -1 -4 -9 3 -9 10 -16 16 -16 5 0 6 -5 2 -12 -11 -18 -10 -68 1
-68 6 0 4 -4 -3 -9 -8 -5 -11 -19 -7 -39 3 -21 1 -32 -6 -32 -8 0 -8 -4 -1
-12 15 -19 15 -30 0 -39 -7 -5 -8 -9 -3 -9 6 0 8 -33 5 -90 -3 -57 -1 -90 5
-90 6 0 3 -5 -5 -10 -8 -5 -10 -10 -4 -10 7 0 9 -10 6 -25 -2 -14 -9 -22 -16
-19 -6 3 -4 0 4 -8 8 -7 15 -26 14 -43 0 -16 4 -36 10 -44 8 -11 8 -13 0 -8
-8 4 -11 -2 -10 -18 0 -14 3 -25 6 -25 5 0 10 -42 10 -87 0 -12 4 -24 9 -27 4
-3 6 -16 4 -30 -3 -13 1 -27 8 -31 8 -6 10 -4 4 5 -5 9 -4 11 4 6 9 -6 9 -11
0 -23 -10 -12 -10 -16 2 -24 10 -6 11 -9 1 -9 -7 0 -10 -5 -7 -10 4 -6 11 -7
17 -4 6 4 6 -2 -1 -15 -7 -11 -8 -21 -2 -21 5 0 8 -16 6 -35 -1 -19 2 -32 7
-29 4 3 8 -9 8 -26 0 -17 3 -29 8 -27 4 3 8 -7 8 -21 3 -66 9 -102 16 -102 4
0 7 -3 7 -8 -8 -48 24 -73 79 -61 18 3 35 3 38 -2 3 -5 14 -4 25 1 14 8 19 7
19 -1 0 -6 7 -9 14 -6 11 4 13 1 9 -10 -4 -10 -2 -14 4 -10 6 4 14 0 17 -9 4
-10 2 -13 -7 -8 -6 4 -3 -2 7 -14 11 -12 15 -22 11 -22 -5 0 0 -7 11 -15 19
-15 19 -15 0 -8 -19 6 -19 6 0 -14 10 -11 21 -19 24 -17 3 1 7 -7 7 -18 1 -12
7 -24 13 -28 7 -4 11 -10 11 -14 -4 -25 1 -36 17 -36 14 0 15 -2 2 -10 -12 -8
-12 -10 3 -16 9 -3 17 -15 17 -25 0 -10 5 -19 10 -19 6 0 10 -7 10 -15 0 -8 6
-15 13 -15 8 0 7 -4 -3 -10 -13 -8 -13 -10 2 -10 10 0 19 -11 23 -30 4 -18 11
-27 18 -23 6 4 8 0 4 -10 -3 -10 -2 -17 3 -17 5 0 12 -11 16 -25 3 -14 11 -25
16 -25 6 0 8 -7 4 -15 -4 -10 1 -15 17 -16 12 0 16 -3 9 -6 -9 -3 -7 -10 9
-24 12 -10 19 -19 16 -19 -4 0 7 -13 25 -30 17 -16 25 -30 18 -30 -7 0 -3 -9
10 -20 13 -11 17 -20 10 -20 -7 0 -10 -8 -7 -20 3 -11 2 -20 -1 -21 -4 0 -19
-3 -34 -5 -16 -3 -28 0 -28 6 0 5 -14 10 -31 10 -21 0 -28 4 -23 13 5 7 0 6
-11 -3 -10 -8 -16 -10 -12 -4 4 7 0 14 -8 18 -8 3 -15 2 -15 -3 0 -12 -33 -9
-42 4 -4 6 -8 2 -8 -8 0 -17 -2 -17 -15 -3 -17 16 -45 11 -45 -8 0 -6 -5 -4
-10 4 -5 8 -10 10 -10 3 0 -6 -13 -10 -31 -9 -16 1 -32 -1 -35 -5 -2 -4 -13
-5 -24 -2 -11 3 -28 -1 -37 -8 -12 -10 -14 -10 -9 -1 4 6 2 12 -3 12 -6 0 -11
-4 -11 -9 0 -5 -23 -11 -50 -13 -28 -1 -50 1 -50 6 0 4 -12 1 -26 -9 -14 -9
-35 -15 -45 -12 -10 3 -19 2 -19 -3 0 -4 -7 -11 -16 -14 -10 -4 -13 -2 -8 7 6
9 4 9 -7 1 -8 -6 -40 -12 -72 -12 -32 0 -61 -3 -64 -6 -4 -3 -12 -1 -20 5 -10
9 -13 7 -14 -7 0 -11 -3 -14 -6 -6 -2 6 -13 12 -24 12 -10 0 -19 -6 -19 -12 0
-10 -3 -9 -9 1 -6 9 -10 10 -16 2 -5 -9 -10 -9 -21 0 -11 9 -14 8 -14 -2 0
-12 -2 -12 -9 0 -6 10 -10 10 -16 1 -6 -9 -10 -9 -17 1 -8 11 -11 11 -15 1 -4
-10 -8 -10 -19 -1 -7 6 -21 9 -29 5 -8 -3 -15 -1 -15 4 0 5 -9 7 -20 5 -11 -2
-18 0 -15 4 7 12 -30 52 -39 43 -4 -4 -7 -2 -6 3 5 24 0 39 -11 28 -11 -11
-62 -5 -54 7 3 4 -2 11 -11 14 -8 3 -12 2 -9 -4 3 -6 -1 -10 -10 -10 -9 0 -14
4 -11 9 4 5 -3 7 -14 4 -11 -3 -17 -10 -14 -15 4 -6 -4 -5 -16 2 -15 8 -20 8
-16 1 4 -6 2 -11 -3 -11 -6 0 -11 4 -11 9 0 5 -7 11 -14 14 -10 4 -13 1 -9 -9
3 -7 0 -14 -6 -14 -6 0 -11 6 -11 13 0 8 -4 7 -10 -3 -9 -13 -10 -13 -10 0 0
12 -2 12 -9 2 -4 -8 -12 -14 -16 -14 -4 0 -12 6 -16 14 -7 10 -9 10 -9 -2 0
-13 -1 -13 -10 0 -8 13 -13 13 -30 2 -11 -7 -25 -10 -30 -7 -6 4 -10 1 -10 -5
0 -6 -5 -8 -12 -4 -8 5 -9 2 -5 -10 4 -9 3 -15 -1 -13 -4 3 -13 -1 -20 -9 -7
-8 -10 -14 -6 -14 3 0 1 -6 -5 -14 -20 -23 -30 -103 -17 -125 7 -10 5 -12 -5
-6 -12 8 -12 6 0 -8 9 -11 10 -17 2 -17 -6 0 -11 -5 -11 -11 0 -5 3 -8 8 -6 4
3 7 -10 8 -28 0 -20 -4 -31 -9 -28 -6 4 -7 1 -2 -7 8 -13 19 -188 15 -235 -1
-11 -2 -70 -3 -132 -1 -70 -6 -109 -12 -106 -5 3 -5 0 2 -7 6 -7 9 -19 6 -28
-4 -10 -2 -13 5 -8 9 5 9 1 3 -17 -6 -14 -8 -27 -5 -30 7 -7 16 -49 18 -84 0
-18 3 -33 6 -33 3 0 11 -9 18 -21 8 -12 9 -18 3 -14 -14 8 -14 4 4 -38 8 -19
11 -37 8 -41 -4 -3 -1 -6 5 -6 10 0 22 -26 28 -59 2 -8 6 -17 11 -20 4 -3 15
-15 23 -25 12 -16 12 -18 1 -11 -10 6 -12 4 -7 -4 5 -7 15 -10 23 -6 12 4 13
2 5 -7 -7 -10 -4 -20 14 -41 13 -15 24 -22 24 -15 1 7 6 3 13 -8 7 -12 20 -20
29 -19 10 2 16 -2 15 -8 -1 -6 8 -13 21 -15 12 -2 22 -8 22 -13 0 -6 9 -5 21
2 13 6 19 7 15 1 -5 -9 14 -9 34 -2 3 1 8 2 13 1 4 0 7 6 7 15 0 10 6 14 15
10 10 -4 15 1 15 15 0 11 5 17 10 14 6 -3 10 -2 10 4 0 5 8 17 17 27 13 12 14
19 6 21 -10 4 -9 9 2 20 12 12 13 18 4 30 -10 11 -10 13 1 11 10 -2 14 11 15
49 1 29 8 60 16 70 9 11 10 14 2 9 -14 -8 -18 6 -6 17 3 4 8 30 10 59 2 28 9
58 15 66 10 12 10 14 1 8 -9 -5 -11 -2 -7 8 3 9 11 13 18 9 6 -4 5 1 -3 10
-10 13 -10 17 -1 17 7 0 10 7 6 16 -6 15 -4 15 11 3 12 -10 15 -10 9 -1 -4 7
-2 20 6 29 11 14 11 16 -2 8 -13 -8 -13 -7 -1 8 7 9 10 17 5 17 -5 0 0 7 10
15 11 8 15 15 9 15 -17 0 -9 28 13 46 10 8 13 13 7 9 -18 -9 -16 5 5 28 9 11
12 17 5 14 -6 -4 -14 -3 -18 3 -3 5 0 10 7 10 10 0 13 14 13 44 -1 27 3 42 8
39 6 -4 8 3 4 16 -3 14 1 26 14 34 10 8 16 17 11 22 -4 5 -1 5 5 1 7 -4 21 -3
31 3 11 6 24 6 33 0 7 -5 10 -9 4 -9 -6 0 -5 -3 1 -8 15 -10 27 -62 14 -62 -7
0 -8 -7 -3 -17 10 -23 9 -145 -2 -162 -4 -8 -2 -17 6 -22 12 -7 11 -9 -1 -9
-13 0 -13 -1 0 -10 8 -5 11 -10 5 -10 -10 0 -15 -35 -18 -122 -1 -27 -4 -48
-7 -48 -3 0 -6 -9 -6 -20 0 -11 5 -20 10 -20 6 0 5 -5 -2 -12 -15 -15 -16 -31
0 -22 7 5 8 3 2 -7 -13 -21 -14 -34 -16 -154 -1 -116 1 -136 17 -147 6 -5 5
-8 -3 -8 -9 0 -10 -5 -4 -17 5 -10 8 -26 7 -35 -2 -10 1 -20 5 -23 5 -3 6 -13
3 -22 -5 -12 -3 -14 7 -8 8 5 11 3 8 -6 -3 -8 2 -23 11 -33 13 -16 13 -18 1
-11 -13 8 -13 7 0 -11 8 -10 19 -22 24 -26 14 -10 59 1 76 19 13 14 13 15 0 9
-9 -5 -8 -2 3 7 9 8 17 20 17 26 0 7 5 9 13 5 7 -5 6 0 -3 11 -8 10 -10 16 -4
12 13 -7 28 19 19 33 -3 4 2 10 10 14 8 3 12 11 9 19 -3 8 2 20 11 27 13 11
13 15 3 22 -10 7 -9 11 4 22 10 7 15 16 11 19 -3 4 0 14 8 24 12 15 12 16 -1
9 -9 -4 -8 -2 2 7 10 8 15 16 13 19 -3 3 1 17 8 31 8 15 17 24 20 20 7 -6 11
12 8 30 -1 5 2 7 6 4 8 -4 43 28 44 41 0 4 10 12 22 19 12 7 18 12 14 13 -4 0
-3 9 3 21 7 12 18 18 26 15 9 -3 12 -2 9 5 -4 6 3 13 15 16 12 3 19 11 16 19
-3 7 2 18 10 24 8 7 14 19 14 26 0 8 5 14 11 14 5 0 7 5 4 10 -3 6 -1 10 6 10
7 0 9 3 6 7 -4 3 -2 12 4 20 9 10 8 13 -2 13 -9 0 -10 3 -4 8 6 4 11 15 12 25
0 9 1 31 2 47 1 18 6 29 14 28 6 -2 11 3 9 10 -1 6 3 12 9 12 5 0 7 6 3 13 -4
6 -4 9 1 5 4 -4 15 -2 23 5 9 6 13 7 9 1 -3 -6 0 -11 8 -11 8 0 13 3 10 5 -11
11 40 29 53 19 9 -7 12 -7 10 2 -2 7 7 17 20 22 15 6 21 5 17 -1 -8 -13 8 -13
22 1 7 7 13 8 17 0 4 -6 15 -7 30 -1 15 5 27 5 35 -3 6 -6 11 -7 11 -1 0 5 11
10 25 10 16 1 23 -2 19 -10 -3 -6 3 -1 13 12 10 13 22 20 26 16 10 -10 77 -12
71 -2 -3 4 5 4 18 -1 13 -4 29 -6 36 -4 8 3 10 -1 6 -14 -6 -14 -4 -16 6 -6 9
9 19 9 33 2 14 -8 18 -8 13 0 -4 6 -2 11 3 11 6 0 11 -6 11 -12 0 -8 3 -9 8
-3 9 13 41 13 50 -1 4 -6 17 -10 30 -9 12 1 22 -2 22 -7 0 -5 6 -6 13 -1 18
11 37 13 37 3 0 -10 40 -7 57 3 6 4 15 2 19 -4 5 -8 3 -9 -6 -4 -8 5 -11 4 -7
-2 7 -11 43 -10 54 2 5 4 2 5 -6 0 -10 -6 -12 -4 -7 4 6 8 12 9 20 2 9 -7 16
-7 24 1 9 9 12 9 12 -1 0 -11 3 -11 15 -1 9 7 18 10 21 7 4 -3 13 1 21 9 12
11 18 12 29 3 11 -9 14 -8 14 4 0 13 36 30 56 26 4 0 10 4 13 10 4 5 22 17 41
25 19 8 29 15 21 16 -8 0 -12 3 -9 6 4 3 16 0 28 -6 13 -7 20 -8 16 -2 -4 6 2
10 14 9 11 -1 20 -6 20 -12 0 -5 5 -3 10 5 7 11 10 11 10 2 0 -8 5 -10 12 -6
19 12 48 12 48 0 0 -6 4 -6 11 1 8 8 20 8 35 3 13 -5 26 -5 28 -1 3 5 19 7 36
6 16 -1 30 2 30 7 0 6 7 5 15 -2 13 -11 14 -10 9 3 -6 16 10 18 33 4 9 -6 11
-3 6 9 -4 12 -3 15 5 10 7 -4 12 -2 12 6 0 9 3 9 10 -2 7 -11 10 -11 10 -2 0
7 5 10 10 7 6 -3 10 -2 10 4 0 5 9 8 20 6 11 -2 19 -1 16 3 -2 4 7 12 20 19
18 8 22 8 17 0 -8 -14 26 11 45 33 8 8 11 10 8 4 -3 -6 1 -11 9 -11 8 0 13 3
12 6 -3 10 41 50 47 43 3 -3 6 2 6 11 0 9 9 21 20 27 11 6 18 15 15 21 -4 5
-1 8 6 7 14 -4 61 61 53 73 -3 5 0 9 6 9 6 0 9 4 6 9 -3 5 0 20 7 34 9 17 13
61 12 125 0 67 3 98 10 94 5 -3 4 1 -3 10 -7 8 -11 26 -8 39 2 13 -1 32 -6 42
-6 11 -5 17 3 17 8 0 6 7 -5 19 -12 13 -14 21 -6 26 7 4 8 11 2 18 -5 7 -8 27
-7 45 1 17 -3 32 -9 32 -6 0 -4 5 4 10 9 6 11 10 3 10 -7 0 -10 6 -7 13 3 8 1
25 -5 39 -5 13 -6 30 -1 37 8 14 -10 62 -22 55 -4 -2 -3 9 2 25 6 22 4 33 -6
42 -7 6 -11 15 -8 20 3 5 -1 9 -8 9 -10 0 -10 2 1 9 9 6 10 11 2 15 -6 4 -8
12 -5 18 4 6 0 14 -7 19 -10 6 -10 9 -2 9 9 0 10 7 3 25 -5 14 -7 25 -4 25 4
0 0 8 -7 17 -12 15 -12 16 1 8 11 -6 10 -3 -2 11 -14 16 -15 23 -6 32 9 9 9
12 -1 12 -7 0 -11 6 -8 15 4 8 2 17 -4 20 -5 4 -7 10 -4 15 3 5 1 11 -5 15 -6
4 -8 11 -4 16 3 5 1 15 -5 22 -13 16 -11 80 3 89 7 5 6 8 -4 8 -13 0 -13 1 0
10 13 9 13 10 0 10 -12 0 -12 2 -2 8 8 5 12 28 12 58 0 27 -1 59 0 72 0 12 -4
22 -8 22 -4 0 -9 12 -10 27 -1 15 -8 30 -15 35 -6 4 -8 8 -3 8 4 0 1 12 -9 26
-11 18 -13 24 -4 19 11 -6 12 -5 2 6 -7 7 -13 21 -13 32 0 10 -4 15 -10 12 -6
-3 -7 1 -4 9 3 8 -1 29 -9 46 -10 19 -11 28 -4 24 7 -3 3 2 -7 10 -11 9 -16
16 -10 16 5 0 1 5 -9 11 -18 10 -18 11 0 32 13 14 14 18 3 13 -8 -4 -6 -1 4 8
10 8 24 12 30 9 6 -4 5 0 -2 9 -10 13 -10 17 3 22 11 4 14 2 10 -7 -4 -6 0 -4
8 5 8 10 17 15 20 11 4 -3 7 2 7 12 0 10 3 15 6 12 10 -10 65 33 58 45 -4 6
-2 8 4 4 13 -8 44 33 35 47 -3 6 -2 8 3 5 8 -5 29 9 31 22 4 17 27 60 33 60 4
0 5 12 2 26 -3 18 -1 25 6 20 7 -4 10 5 10 25 -1 17 5 35 13 40 12 7 12 9 0 9
-11 0 -12 3 -4 11 6 6 9 18 6 25 -3 8 -1 14 5 14 5 0 7 11 4 25 -2 14 0 25 5
25 11 0 11 29 0 47 -4 6 -2 15 4 18 5 4 8 13 5 21 -3 8 -1 14 5 14 6 0 8 4 5
9 -3 5 -7 29 -7 55 -1 25 -6 46 -11 46 -4 0 -8 9 -8 20 0 11 -4 20 -10 20 -5
0 -10 7 -10 16 0 8 -5 12 -11 8 -8 -4 -9 0 -4 15 5 15 2 21 -9 21 -9 0 -16 7
-16 16 0 8 -4 12 -10 9 -5 -3 -10 0 -10 7 0 25 -25 68 -39 68 -8 0 -11 3 -8 7
4 3 -1 12 -11 20 -9 8 -11 12 -4 8 19 -10 14 2 -12 28 -14 14 -22 28 -19 31 4
3 1 6 -5 6 -6 0 -9 7 -5 17 4 11 3 14 -5 9 -8 -5 -12 0 -12 13 0 12 -5 21 -11
21 -5 0 -8 4 -4 9 3 5 -2 16 -11 25 -8 9 -16 25 -17 36 -1 11 -5 20 -10 20 -5
0 -7 7 -3 15 3 8 1 15 -5 15 -6 0 -8 4 -5 9 4 5 0 12 -6 14 -10 4 -10 7 -1 14
10 7 8 12 -6 23 -11 7 -17 19 -14 26 2 7 -1 22 -7 34 -10 18 -10 21 2 14 8 -5
6 2 -5 19 -9 15 -15 27 -11 27 4 0 1 7 -6 15 -6 8 -9 18 -6 24 3 5 -1 12 -10
15 -9 4 -14 13 -10 22 3 8 2 13 -3 10 -8 -6 -25 30 -22 47 1 5 -3 5 -9 2 -7
-4 -14 2 -17 14 -3 12 -10 21 -17 21 -6 0 -4 5 4 10 10 6 11 10 3 10 -7 0 -13
7 -13 16 0 9 -5 12 -12 8 -6 -4 -8 -3 -5 4 8 12 -2 44 -12 37 -4 -2 -8 2 -8
10 0 8 5 11 11 8 6 -4 5 1 -3 10 -7 9 -11 30 -9 47 3 16 2 30 -2 30 -11 0 -3
52 9 60 11 6 11 8 0 12 -8 3 -5 7 9 10 19 5 26 -1 42 -33 11 -21 24 -39 29
-39 5 0 8 -11 6 -25 -2 -26 46 -91 59 -78 3 3 14 -2 25 -11 14 -13 21 -14 26
-6 6 9 10 9 16 -1 7 -11 9 -11 9 -1 0 7 5 10 10 7 6 -3 10 0 10 7 0 9 3 9 10
-2 5 -8 10 -10 10 -4 0 14 42 13 52 -1 4 -6 8 -2 8 8 0 10 5 15 10 12 6 -3 10
-1 10 5 0 6 4 9 10 5 11 -7 45 12 77 43 13 12 28 22 33 22 6 0 9 3 8 8 -2 4 7
18 19 31 12 13 20 28 17 32 -3 5 3 6 12 2 12 -4 15 -3 10 5 -4 7 -1 12 8 12
10 0 13 6 10 15 -4 8 -2 15 4 15 5 0 17 12 27 26 12 18 13 24 4 19 -8 -3 -7
-1 2 7 13 11 15 31 12 118 -3 126 -4 131 -15 124 -4 -3 -8 6 -8 20 0 14 -5 28
-11 32 -6 3 -9 15 -6 25 3 11 1 19 -5 19 -5 0 -7 4 -3 9 3 5 0 13 -6 17 -8 4
-7 9 2 15 10 6 10 9 2 9 -7 0 -10 7 -7 15 4 8 2 15 -2 15 -5 0 -10 26 -11 58
-3 88 -5 102 -14 96 -5 -3 -6 2 -3 10 4 10 1 16 -9 16 -10 0 -15 7 -12 19 3
15 -1 18 -12 14 -12 -5 -14 -3 -8 7 6 10 4 12 -8 7 -10 -3 -17 -3 -17 2 0 11
-40 56 -40 45 0 -5 -5 -1 -11 9 -5 9 -17 17 -25 17 -9 0 -12 5 -8 12 4 6 3 8
-4 5 -16 -11 -42 3 -42 23 0 11 -5 22 -12 26 -7 5 -8 2 -3 -7 5 -8 4 -11 -1
-6 -5 5 -9 12 -10 15 0 4 -4 26 -8 49 -4 24 -7 46 -6 49 1 4 -5 11 -14 16 -12
7 -13 14 -6 34 6 15 6 23 1 19 -6 -3 -9 4 -8 15 1 11 5 20 10 20 4 0 5 5 2 10
-4 6 -1 18 7 27 9 12 9 15 1 9 -8 -4 -13 -1 -13 8 0 9 -4 16 -10 16 -5 0 -10
7 -10 15 0 9 -6 12 -17 8 -10 -3 -15 -3 -11 2 8 9 -15 35 -32 35 -6 0 -9 4 -6
8 2 4 -5 9 -16 9 -12 1 -24 7 -28 14 -5 7 -13 8 -21 3 -12 -7 -12 -5 -1 9 12
14 11 16 -8 12 -16 -3 -20 0 -16 10 3 9 -1 15 -9 15 -8 0 -15 8 -15 18 0 14
-2 15 -10 2 -8 -13 -10 -12 -10 3 0 13 -5 16 -25 11 -19 -5 -30 0 -49 23 -14
15 -28 36 -31 46 -4 9 -10 15 -15 12 -4 -3 -6 5 -2 17 4 17 2 20 -13 15 -13
-6 -16 -3 -11 10 4 10 4 14 0 10 -4 -4 -13 -2 -20 4 -8 7 -14 7 -19 -1 -4 -7
-11 -5 -21 5 -9 8 -20 13 -25 10 -5 -4 -9 1 -9 9 0 10 -6 13 -15 10 -8 -4 -15
-1 -15 6 0 6 -4 9 -9 5 -6 -3 -14 3 -20 12 -6 10 -11 14 -11 9 0 -6 -7 -1 -16
10 -8 10 -13 13 -9 7 4 -9 1 -11 -9 -7 -9 3 -13 10 -10 15 3 5 -2 6 -10 3 -10
-4 -16 -1 -16 7 0 11 -3 11 -10 -1 -9 -13 -10 -13 -10 0 0 12 -2 12 -9 1 -6
-9 -10 -10 -16 -2 -5 9 -10 9 -20 1 -10 -8 -15 -8 -20 1 -6 8 -10 8 -15 -2 -6
-9 -12 -10 -22 -1 -8 7 -19 7 -28 2 -9 -5 -19 -5 -26 1 -8 7 -14 6 -19 -1 -5
-8 -10 -8 -20 0 -10 8 -15 8 -20 0 -5 -8 -10 -8 -20 0 -10 8 -15 8 -20 0 -5
-8 -11 -8 -21 1 -8 6 -14 8 -14 4 0 -4 -11 0 -24 8 -17 12 -26 13 -35 4 -8 -8
-11 -8 -11 1 0 7 -5 12 -11 12 -5 0 -7 -6 -3 -12 6 -10 4 -10 -7 -3 -17 12
-39 13 -58 1 -8 -5 -12 -5 -9 0 8 13 -13 29 -42 31 -51 5 -59 7 -54 15 3 4 1
8 -4 8 -14 0 -21 48 -8 54 6 2 7 5 1 5 -12 1 -7 181 6 197 4 6 5 15 1 20 -4 5
-5 8 -3 6 9 -5 31 60 24 71 -4 6 -1 7 7 2 10 -6 12 -4 7 8 -3 9 -2 19 4 22 5
4 7 11 4 16 -4 5 -1 9 6 9 8 0 7 5 -2 17 -8 9 -9 14 -4 11 20 -12 33 16 38 84
1 14 7 26 12 25 6 -1 9 6 7 17 -2 10 1 15 6 12 6 -3 8 2 5 13 -3 10 0 22 6 25
6 4 11 12 11 17 0 6 -5 7 -11 3 -8 -5 -8 -1 0 13 7 14 7 24 -2 33 -8 9 -8 11
-1 7 15 -9 27 20 12 29 -7 5 -8 2 -3 -6 5 -9 4 -11 -3 -6 -9 5 -9 13 -2 26 13
24 13 33 -1 24 -8 -4 -9 1 -4 16 5 17 4 21 -6 15 -10 -6 -11 -5 -3 4 7 7 8 29
4 56 -5 30 -3 45 4 45 6 0 4 5 -4 10 -11 7 -11 10 -2 10 7 0 10 5 7 10 -3 6 1
10 10 10 13 0 14 4 5 20 -8 16 -8 20 2 18 7 -2 12 5 12 14 -1 10 1 17 5 16 19
-2 24 4 11 12 -13 8 -12 10 4 10 11 0 17 3 13 6 -3 4 5 21 18 39 14 17 25 37
25 43 0 7 5 12 10 12 6 0 9 3 9 8 -1 4 0 9 1 12 4 9 5 88 1 85 -8 -8 -28 21
-21 30 8 10 -27 14 -50 7z m24 -187 c-4 -8 -11 -15 -16 -15 -6 0 -5 6 2 15 7
8 14 15 16 15 2 0 1 -7 -2 -15z m-2579 -3223 c-6 -4 -22 -18 -37 -31 -16 -14
-28 -20 -28 -15 0 5 15 19 33 32 30 21 52 31 32 14z"/>
</g>
</svg>
